<svg width="71" height="46" viewBox="0 0 71 46" fill="none" xmlns="http://www.w3.org/2000/svg">
  <g opacity="0.25">
    <path d="M68.5342 37.4326H1V45.0005H68.5342V37.4326Z" fill="#C0C6C9"/>
    <path d="M68.5342 37.4326H1V45.0005H68.5342V37.4326Z" stroke="#C0C6C9" stroke-width="0.447" stroke-miterlimit="3.864"/>
    <path fill-rule="evenodd" clip-rule="evenodd" d="M3.8168 39.7061H4.12223C4.49553 39.7061 4.66522 39.774 4.66522 40.283C4.66522 40.826 4.46159 40.9617 4.1901 40.9617H3.85073V39.7061H3.8168ZM3.8168 43.4391V41.6065H4.25797C4.49553 41.6065 4.80096 41.5387 5.00458 41.335C5.24214 41.0975 5.34395 40.6563 5.34395 40.283C5.34395 39.6721 5.14033 39.0273 4.52947 39.0273H3.172V43.4391H3.8168Z" fill="#021C27"/>
    <path fill-rule="evenodd" clip-rule="evenodd" d="M7.85525 41.5392C8.02493 41.5392 8.22856 41.5392 8.39824 41.607C8.6358 41.6749 8.60186 42.0482 8.6358 42.3197C8.6358 42.6251 8.6358 43.1342 8.70367 43.4396H9.41634V43.3717C9.24666 43.236 9.2806 42.1839 9.2806 41.9803C9.2806 41.5731 9.17879 41.2677 8.77154 41.1998C9.21272 41.1319 9.31453 40.6229 9.31453 40.1477C9.31453 39.3333 8.87335 39.0957 8.33037 39.0957H7.10864V43.4396H7.7195V41.5731H7.85525V41.5392ZM7.7195 39.7066H8.19462C8.43218 39.7066 8.60186 39.8084 8.60186 40.2835C8.60186 40.7247 8.43218 40.8944 8.22856 40.9283H7.7195V39.7066Z" fill="#021C27"/>
    <path d="M13.0815 43.4394V42.7946H11.8937V41.4371H13.0136V40.7923H11.8937V39.7063H13.0815V39.0615H11.2489V43.4394H13.0815Z" fill="#021C27"/>
    <path d="M16.9163 40.3853C16.9163 39.9441 16.9503 38.96 15.8982 38.96C15.2195 38.96 14.8801 39.3672 14.8801 40.1138C14.8801 40.3514 14.948 40.5889 15.0498 40.7925C15.3213 41.2337 15.7285 41.4713 16.0679 41.8106C16.2376 41.9464 16.3394 42.1161 16.3394 42.3876C16.3394 42.7269 16.2037 42.8966 15.9322 42.8966C15.6267 42.8966 15.5249 42.5912 15.5249 42.15V41.8785H14.8462V42.184C14.8462 42.9645 15.1177 43.5075 15.8982 43.5075C16.543 43.5075 16.9842 43.0663 16.9842 42.2518C16.9842 41.8785 16.9163 41.607 16.6788 41.3355C16.5091 41.098 16.1019 40.7925 15.8982 40.6229C15.6946 40.4532 15.5249 40.3174 15.5249 40.012C15.5249 39.7066 15.6607 39.6048 15.8982 39.6048C16.2715 39.6048 16.2715 39.9781 16.2715 40.3853H16.9163Z" fill="#021C27"/>
    <path d="M19.5296 39.0615H18.8848V43.4394H19.5296V39.0615Z" fill="#021C27"/>
    <path fill-rule="evenodd" clip-rule="evenodd" d="M22.1765 42.7948V39.7066H22.6177C23.025 39.7066 23.0928 40.1138 23.0928 41.1319C23.0928 42.3876 23.0589 42.7948 22.482 42.7948H22.1765ZM22.7195 43.4396C22.8892 43.4396 23.0589 43.4396 23.1946 43.3378C23.7376 42.9306 23.7376 41.9464 23.7376 41.098C23.7376 40.3853 23.7037 39.8762 23.534 39.6048C23.3304 39.1975 23.025 39.0957 22.8553 39.0957H21.4978V43.4396H22.7195Z" fill="#021C27"/>
    <path d="M26.3169 39.0615H25.6721V43.4394H26.3169V39.0615Z" fill="#021C27"/>
    <path fill-rule="evenodd" clip-rule="evenodd" d="M28.2852 41.5052C28.2852 42.6591 28.353 43.5075 29.439 43.5075C30.525 43.5075 30.5929 42.6591 30.5929 41.5052V40.8944C30.5589 39.7744 30.491 38.96 29.439 38.96C28.387 38.96 28.3191 39.7744 28.2852 40.8944V41.5052ZM28.93 40.7247C28.93 40.3853 28.896 39.6387 29.4051 39.6387C29.8802 39.6387 29.8802 40.4192 29.8802 40.7586V41.8785C29.8802 42.2858 29.8802 42.8966 29.4051 42.8966C28.9639 42.8966 28.93 42.3197 28.93 41.9464V40.7247Z" fill="#021C27"/>
    <path fill-rule="evenodd" clip-rule="evenodd" d="M35.6494 42.7948V39.7066H36.0906C36.4979 39.7066 36.5657 40.1138 36.5657 41.1319C36.5657 42.3876 36.5318 42.7948 35.9549 42.7948H35.6494ZM36.1924 43.4396C36.3621 43.4396 36.5318 43.4396 36.6675 43.3378C37.2105 42.9306 37.2105 41.9464 37.2105 41.098C37.2105 40.3853 37.1766 39.8762 37.0069 39.6048C36.8033 39.1975 36.4979 39.0957 36.3282 39.0957H34.9707V43.4396H36.1924Z" fill="#021C27"/>
    <path d="M40.9775 43.4394V42.7946H39.7897V41.4371H40.9096V40.7923H39.7897V39.7063H40.9775V39.0615H39.1449V43.4394H40.9775Z" fill="#021C27"/>
    <path d="M44.7106 43.4394V42.7946H43.4889V39.0615H42.8441V43.4394H44.7106Z" fill="#021C27"/>
    <path d="M48.3758 43.4394V42.7946H47.1541V39.0615H46.5093V43.4394H48.3758Z" fill="#021C27"/>
    <path d="M50.7174 39.1299H50.1744V40.7249H50.7174V39.1299Z" fill="#021C27"/>
    <path fill-rule="evenodd" clip-rule="evenodd" d="M53.0929 43.4394L53.2626 42.3195H54.0432L54.2128 43.4394H54.9255L54.145 39.0615H53.2626L52.4142 43.4394H53.0929ZM53.568 40.4529C53.602 40.2493 53.602 40.0457 53.6359 39.8421C53.6359 39.7403 53.6359 39.6384 53.6698 39.5366C53.6698 39.6384 53.7038 39.7403 53.7038 39.8421C53.7377 40.0457 53.7377 40.2493 53.7717 40.4529L53.9413 41.7086H53.3984L53.568 40.4529Z" fill="#021C27"/>
    <path fill-rule="evenodd" clip-rule="evenodd" d="M57.3351 41.5392C57.5048 41.5392 57.7084 41.5392 57.8781 41.607C58.1157 41.6749 58.0817 42.0482 58.1157 42.3197C58.1157 42.6251 58.1157 43.1342 58.1835 43.4396H58.8962V43.3717C58.7265 43.236 58.7605 42.1839 58.7605 41.9803C58.7605 41.5731 58.6586 41.2677 58.2514 41.1998C58.6926 41.1319 58.7944 40.6229 58.7944 40.1477C58.7944 39.3333 58.3532 39.0957 57.8102 39.0957H56.5885V43.4396H57.2333V41.5731H57.3351V41.5392ZM57.2333 39.7066H57.7084C57.946 39.7066 58.1157 39.8084 58.1157 40.2835C58.1157 40.7247 57.946 40.8944 57.7423 40.9283H57.2333V39.7066Z" fill="#021C27"/>
    <path d="M61.4414 39.0615H60.7966V43.4394H61.4414V39.0615Z" fill="#021C27"/>
    <path fill-rule="evenodd" clip-rule="evenodd" d="M63.817 43.4394L63.9867 42.3195H64.7673L64.937 43.4394H65.6496L64.8691 39.0615H63.9867L63.1383 43.4394H63.817ZM64.2922 40.4529C64.3261 40.2493 64.3261 40.0457 64.36 39.8421C64.36 39.7403 64.36 39.6384 64.394 39.5366C64.394 39.6384 64.4279 39.7403 64.4279 39.8421C64.4618 40.0457 64.4618 40.2493 64.4958 40.4529L64.6655 41.7086H64.1225L64.2922 40.4529Z" fill="#021C27"/>
    <path d="M34.3599 14.5941C34.3599 12.3543 36.0906 10.5557 38.2626 10.5557C40.4006 10.5557 42.1653 12.3543 42.1653 14.5941C42.1653 16.834 40.4345 18.6326 38.2626 18.6326C36.0906 18.6326 34.3599 16.8 34.3599 14.5941Z" fill="#859399"/>
    <path d="M28.5567 14.5935C28.5567 8.99396 32.9345 4.44643 38.2965 4.44643C39.5861 4.44643 40.8078 4.71793 41.9617 5.19304V1.01882C40.8078 0.67945 39.5861 0.509766 38.2965 0.509766C30.7626 0.509766 24.62 6.82201 24.62 14.5935C24.62 18.0211 25.8078 21.1433 27.7761 23.5868H33.7829C30.6947 21.8899 28.5567 18.4963 28.5567 14.5935Z" fill="#C0C6C9"/>
    <path d="M38.2286 19.6834C35.5476 19.6834 33.3756 17.4096 33.3756 14.5929C33.3756 11.7761 35.5476 9.4684 38.2625 9.4684C39.7557 9.4684 41.0793 10.1811 41.9616 11.267V6.44803C40.8417 5.90504 39.5861 5.59961 38.2625 5.59961C33.4435 5.59961 29.5408 9.63809 29.5408 14.5589C29.5408 19.4797 33.4435 23.5182 38.2625 23.5182C39.5861 23.5182 40.8417 23.2128 41.9616 22.6698V17.9187C41.0453 19.0046 39.7218 19.6834 38.2286 19.6834Z" fill="#859399"/>
    <path d="M41.9277 0H19.4276V4.44572H41.9277V0Z" fill="#C0C6C9"/>
    <path d="M4.42761 25.25H2.32353V27.6256H1.06787V29.0849H2.32353V33.7342C2.32353 35.2953 3.44345 35.6007 4.73304 35.6007C5.14028 35.6007 5.6154 35.6007 5.95477 35.5328V33.836C5.75115 33.8699 5.51359 33.9039 5.30997 33.9039C4.5973 33.9039 4.42761 33.7342 4.42761 32.9876V29.0849H5.95477V27.6256H4.42761V25.25Z" fill="#C0C6C9"/>
    <path fill-rule="evenodd" clip-rule="evenodd" d="M13.0136 32.1061C13.1493 29.6966 11.8937 27.4229 9.31447 27.4229C7.00677 27.4229 5.44568 29.2215 5.44568 31.5971C5.44568 34.0405 6.9389 35.7374 9.31447 35.7374C11.0452 35.7374 12.3009 34.9568 12.8778 33.0903H11.0452C10.9095 33.5654 10.2308 34.1084 9.38234 34.1084C8.22849 34.1084 7.5837 33.4975 7.51582 32.1061H13.0136ZM7.51582 30.7147C7.54976 30.1039 7.92306 29.0518 9.2466 29.0518C10.2647 29.0518 10.7059 29.6287 10.9095 30.7147H7.51582Z" fill="#C0C6C9"/>
    <path d="M20.4796 30.4093C20.3439 28.407 18.7149 27.4229 16.9163 27.4229C14.4389 27.4229 13.0475 29.2215 13.0475 31.6989C13.0475 34.0745 14.6086 35.7374 16.8823 35.7374C18.8846 35.7374 20.276 34.5835 20.5475 32.5134H18.5452C18.4095 33.4636 17.8665 34.1084 16.8823 34.1084C15.5588 34.1084 15.1516 32.7509 15.1516 31.631C15.1516 30.4772 15.5927 29.0858 16.9163 29.0858C17.7986 29.0858 18.3416 29.5609 18.4774 30.4432H20.4796V30.4093Z" fill="#C0C6C9"/>
    <path d="M20.7512 35.4986H22.8553V31.3922C22.8553 29.7972 23.3304 29.1185 24.4843 29.1185C25.4684 29.1185 25.8078 29.7633 25.8078 31.0529V35.4986H27.9119V30.6456C27.9119 28.6773 27.3689 27.3877 25.1291 27.3877C24.2467 27.3877 23.3304 27.8289 22.8214 28.7112H22.7874V27.6253H20.7852V35.4986H20.7512Z" fill="#C0C6C9"/>
    <path fill-rule="evenodd" clip-rule="evenodd" d="M27.9458 31.5619C27.9458 34.0732 29.5069 35.7022 31.8825 35.7022C34.292 35.7022 35.8191 34.0393 35.8191 31.5619C35.8191 29.0506 34.258 27.3877 31.8825 27.3877C29.5069 27.4216 27.9458 29.0506 27.9458 31.5619ZM30.0499 31.5619C30.0499 30.3063 30.4911 29.0167 31.8825 29.0167C33.3078 29.0167 33.749 30.2723 33.749 31.5619C33.749 32.8176 33.3078 34.0732 31.8825 34.0732C30.4911 34.0732 30.0499 32.8176 30.0499 31.5619Z" fill="#C0C6C9"/>
    <path d="M43.4549 30.4093C43.3191 28.407 41.6901 27.4229 39.8915 27.4229C37.4141 27.4229 36.0227 29.2215 36.0227 31.6989C36.0227 34.0745 37.5838 35.7374 39.8576 35.7374C41.8598 35.7374 43.2512 34.5835 43.5227 32.5134H41.5205C41.3847 33.4636 40.8417 34.1084 39.8576 34.1084C38.534 34.1084 38.1268 32.7509 38.1268 31.631C38.1268 30.4772 38.568 29.0858 39.8915 29.0858C40.7739 29.0858 41.3168 29.5609 41.4526 30.4432H43.4549V30.4093Z" fill="#C0C6C9"/>
    <path d="M45.8643 24.6055H43.7603V35.4992H45.8643V24.6055Z" fill="#C0C6C9"/>
    <path fill-rule="evenodd" clip-rule="evenodd" d="M46.5431 35.4992H48.6472V27.6258H46.5431V35.4992ZM48.6132 24.6055H46.5092V26.4041H48.6132V24.6055Z" fill="#C0C6C9"/>
    <path d="M49.4617 35.4998H51.5657V30.9183C51.5657 29.3912 52.5499 29.1197 52.9911 29.1197C54.3146 29.1197 54.2468 30.1717 54.2468 31.088V35.4998H56.3508V31.122C56.3508 30.1378 56.5545 29.1197 57.7422 29.1197C58.93 29.1197 59.0318 30.002 59.0318 31.0541V35.5337H61.1359V30.2396C61.1359 28.2034 59.9821 27.4229 58.3531 27.4229C57.3011 27.4229 56.4866 28.0337 56.0454 28.7464C55.6382 27.7962 54.7897 27.4229 53.8395 27.4229C52.8553 27.4229 52.0748 27.898 51.5318 28.7124H51.4979V27.6604H49.4617V35.4998Z" fill="#C0C6C9"/>
    <path fill-rule="evenodd" clip-rule="evenodd" d="M66.5319 32.4455C66.5319 32.9206 66.464 34.2441 64.8351 34.2441C64.1563 34.2441 63.5455 34.0405 63.5455 33.226C63.5455 32.4455 64.1224 32.2079 64.7672 32.0722C65.412 31.9364 66.1586 31.9364 66.498 31.631V32.4455H66.5319ZM63.817 30.036C63.8849 29.1876 64.3939 28.8482 65.2084 28.8482C65.955 28.8482 66.5659 28.9839 66.5659 29.9002C66.5659 30.7826 65.3781 30.7487 64.0885 30.9523C62.7989 31.122 61.5093 31.5631 61.5093 33.3618C61.5093 34.9908 62.6631 35.7374 64.0885 35.7374C65.0048 35.7374 65.9889 35.4659 66.6337 34.7532C66.6337 35.0247 66.7016 35.2622 66.7695 35.4998H68.8736C68.6699 35.1944 68.6021 34.4478 68.6021 33.7351V29.6627C68.6021 27.7622 66.7695 27.4229 65.2763 27.4229C63.5794 27.4229 61.8147 28.0337 61.7129 30.0699H63.817V30.036Z" fill="#C0C6C9"/>
    <path fill-rule="evenodd" clip-rule="evenodd" d="M69.4165 26.0312C68.7378 26.0312 68.2288 26.5742 68.2288 27.253C68.2288 27.9317 68.7378 28.4747 69.4165 28.4747C70.0953 28.4747 70.6043 27.9317 70.6043 27.253C70.6043 26.5742 70.0953 26.0312 69.4165 26.0312ZM69.4165 26.2009C69.9935 26.2009 70.4346 26.6761 70.4346 27.253C70.4346 27.8299 69.9935 28.305 69.4165 28.305C68.8396 28.305 68.3984 27.8299 68.3984 27.253C68.3984 26.6761 68.8396 26.2009 69.4165 26.2009ZM69.1451 27.3548H69.4165L69.7898 27.9996H69.9935L69.5862 27.3548C69.7559 27.3208 69.9256 27.219 69.9256 26.9475C69.9256 26.6761 69.7898 26.5403 69.4844 26.5403H68.9414V27.9656H69.1111V27.3548H69.1451ZM69.1451 27.1851V26.676H69.4505C69.6202 26.676 69.7898 26.71 69.7898 26.9136C69.7898 27.1512 69.5862 27.1512 69.3826 27.1512H69.1451V27.1851Z" fill="#C0C6C9"/>
  </g>
</svg>
