<svg width="160" height="30" viewBox="0 0 160 30" fill="none" xmlns="http://www.w3.org/2000/svg">
  <path d="M19.1667 18.3333C19.1667 15.5602 21.3841 13.3333 24.1667 13.3333C26.9058 13.3333 29.1667 15.5602 29.1667 18.3333C29.1667 21.1065 26.9493 23.3333 24.1667 23.3333C21.3841 23.3333 19.1667 21.0644 19.1667 18.3333Z" fill="#E3061B"/>
  <path d="M11.6115 18.5612C11.6115 11.4389 17.1799 5.65468 24 5.65468C25.6403 5.65468 26.8657 6.00001 28.3333 6.60432V1.29497C26.8657 0.863319 25.6403 0.647491 24 0.647491C14.4173 0.647491 6.60432 8.67627 6.60432 18.5612C6.60432 22.9209 8.11511 26.8921 10.6187 30H18.259C14.3309 27.8417 11.6115 23.5252 11.6115 18.5612Z" fill="$blue"/>
  <path d="M23.9137 24.625C20.5036 24.625 17.741 22.1438 17.741 18.5611C17.741 14.9784 20.5036 12.0431 23.9568 12.0431C25.8561 12.0431 27.0833 12.5 28.3333 13.4975V8.20139C26.9089 7.51074 25.6403 7.12225 23.9568 7.12225C17.8273 7.12225 12.8633 12.2589 12.8633 18.5179C12.8633 24.7769 17.8273 29.9136 23.9568 29.9136C25.6403 29.9136 26.9089 29.5251 28.3333 28.8345V22.875C27.1679 24.2563 25.8129 24.625 23.9137 24.625Z" fill="#E3061B"/>
  <path d="M28.3333 0H0V5.65467H28.3333V0Z" fill="$blue"/>
  <path d="M41.0366 11.1586H37.2561V15.4269H35V18.0488H37.2561V26.4025C37.2561 29.2074 39.2683 29.7561 41.5854 29.7561C42.3171 29.7561 43.1707 29.7561 43.7805 29.6342V26.5854C43.4146 26.6464 42.9878 26.7074 42.622 26.7074C41.3415 26.7074 41.0366 26.4025 41.0366 25.061V18.0488H43.7805V15.4269H41.0366V11.1586Z" fill="black"/>
  <path fill-rule="evenodd" clip-rule="evenodd" d="M56.4634 23.4756C56.7073 19.1463 54.4512 15.061 49.817 15.061C45.6707 15.061 42.8658 18.2927 42.8658 22.561C42.8658 26.9512 45.5487 30 49.817 30C52.9268 30 55.1829 28.5976 56.2195 25.2439H52.9268C52.6829 26.0976 51.4634 27.0732 49.939 27.0732C47.8658 27.0732 46.7073 25.9756 46.5853 23.4756H56.4634ZM46.5853 20.9756C46.6463 19.878 47.317 17.9878 49.6951 17.9878C51.5244 17.9878 52.317 19.0244 52.6829 20.9756H46.5853Z" fill="black"/>
  <path d="M69.878 20.4268C69.6341 16.8293 66.7073 15.061 63.4755 15.061C59.0243 15.061 56.5243 18.2927 56.5243 22.7439C56.5243 27.0122 59.3292 30 63.4146 30C67.0121 30 69.5121 27.9268 69.9999 24.2073H66.4024C66.1585 25.9146 65.1829 27.0732 63.4146 27.0732C61.0365 27.0732 60.3048 24.6341 60.3048 22.6219C60.3048 20.5488 61.0975 18.0488 63.4755 18.0488C65.0609 18.0488 66.0365 18.9024 66.2804 20.4878H69.878V20.4268Z" fill="black"/>
  <path d="M70.3658 29.5731H74.1463V22.1951C74.1463 19.3292 75 18.1097 77.0731 18.1097C78.8414 18.1097 79.4512 19.2683 79.4512 21.5853V29.5731H83.2317V20.8536C83.2317 17.317 82.2561 15 78.2317 15C76.6463 15 75 15.7927 74.0853 17.378H74.0244V15.4268H70.4268V29.5731H70.3658Z" fill="black"/>
  <path fill-rule="evenodd" clip-rule="evenodd" d="M83.2927 22.5C83.2927 27.0122 86.0975 29.939 90.3658 29.939C94.6951 29.939 97.439 26.9512 97.439 22.5C97.439 17.9878 94.6341 15 90.3658 15C86.0975 15.0609 83.2927 17.9878 83.2927 22.5ZM87.0732 22.5C87.0732 20.2439 87.8658 17.9268 90.3658 17.9268C92.9268 17.9268 93.7195 20.1829 93.7195 22.5C93.7195 24.7561 92.9268 27.0122 90.3658 27.0122C87.8658 27.0122 87.0732 24.7561 87.0732 22.5Z" fill="black"/>
  <path d="M111.158 20.4268C110.915 16.8293 107.988 15.061 104.756 15.061C100.305 15.061 97.8048 18.2927 97.8048 22.7439C97.8048 27.0122 100.61 30 104.695 30C108.293 30 110.793 27.9268 111.28 24.2073H107.683C107.439 25.9146 106.463 27.0732 104.695 27.0732C102.317 27.0732 101.585 24.6341 101.585 22.6219C101.585 20.5488 102.378 18.0488 104.756 18.0488C106.341 18.0488 107.317 18.9024 107.561 20.4878H111.158V20.4268Z" fill="black"/>
  <path d="M115.488 10H111.707V29.5732H115.488V10Z" fill="black"/>
  <path fill-rule="evenodd" clip-rule="evenodd" d="M116.707 29.5732H120.488V15.4268H116.707V29.5732ZM120.427 10H116.646V13.2317H120.427V10Z" fill="black"/>
  <path d="M121.951 29.5732H125.732V21.3415C125.732 18.5976 127.5 18.1098 128.293 18.1098C130.671 18.1098 130.549 20 130.549 21.6463V29.5732H134.329V21.7073C134.329 19.939 134.695 18.1098 136.829 18.1098C138.963 18.1098 139.146 19.6951 139.146 21.5854V29.6341H142.927V20.1219C142.927 16.4634 140.854 15.061 137.927 15.061C136.037 15.061 134.573 16.1585 133.78 17.439C133.049 15.7317 131.524 15.061 129.817 15.061C128.049 15.061 126.646 15.9146 125.671 17.378H125.61V15.4878H121.951V29.5732Z" fill="black"/>
  <path fill-rule="evenodd" clip-rule="evenodd" d="M152.622 24.0854C152.622 24.939 152.5 27.3171 149.573 27.3171C148.354 27.3171 147.256 26.9512 147.256 25.4878C147.256 24.0854 148.293 23.6585 149.451 23.4146C150.61 23.1707 151.951 23.1707 152.561 22.6219V24.0854H152.622ZM147.744 19.7561C147.866 18.2317 148.781 17.6219 150.244 17.6219C151.585 17.6219 152.683 17.8659 152.683 19.5122C152.683 21.0976 150.549 21.0366 148.232 21.4024C145.915 21.7073 143.598 22.5 143.598 25.7317C143.598 28.6585 145.671 30 148.232 30C149.878 30 151.646 29.5122 152.805 28.2317C152.805 28.7195 152.927 29.1463 153.049 29.5732H156.829C156.463 29.0244 156.341 27.6829 156.341 26.4024V19.0854C156.341 15.6707 153.049 15.061 150.366 15.061C147.317 15.061 144.146 16.1585 143.963 19.8171H147.744V19.7561Z" fill="black"/>
  <path fill-rule="evenodd" clip-rule="evenodd" d="M157.805 12.561C156.585 12.561 155.671 13.5366 155.671 14.7561C155.671 15.9756 156.585 16.9512 157.805 16.9512C159.024 16.9512 159.939 15.9756 159.939 14.7561C159.939 13.5366 159.024 12.561 157.805 12.561ZM157.805 12.8659C158.842 12.8659 159.634 13.7195 159.634 14.7561C159.634 15.7927 158.842 16.6463 157.805 16.6463C156.768 16.6463 155.976 15.7927 155.976 14.7561C155.976 13.7195 156.768 12.8659 157.805 12.8659ZM157.317 14.939H157.805L158.476 16.0976H158.842L158.11 14.939C158.415 14.878 158.72 14.6951 158.72 14.2073C158.72 13.7195 158.476 13.4756 157.927 13.4756H156.951V16.0366H157.256V14.939H157.317ZM157.317 14.6341V13.7195H157.866C158.171 13.7195 158.476 13.7805 158.476 14.1463C158.476 14.5732 158.11 14.5732 157.744 14.5732H157.317V14.6341Z" fill="black"/>
</svg>
