<svg width="30" height="30" viewBox="0 0 30 30" fill="none" xmlns="http://www.w3.org/2000/svg">
  <path d="M16.4961 17.2806C16.4961 15.8562 17.5968 14.7124 18.978 14.7124C20.3377 14.7124 21.4599 15.8562 21.4599 17.2806C21.4599 18.705 20.3592 19.8489 18.978 19.8489C17.5968 19.8489 16.4961 18.6835 16.4961 17.2806Z" fill="#F5F8F9"/>
  <path d="M12.8052 17.2812C12.8052 13.7202 15.5893 10.8282 18.9992 10.8282C19.8193 10.8282 20.5963 11.0009 21.3301 11.303V8.64843C20.5963 8.43262 19.8193 8.32471 18.9992 8.32471C14.2081 8.32471 10.3018 12.3389 10.3018 17.2812C10.3018 19.4609 11.0571 21.4465 12.3089 23.0004H16.1289C14.1649 21.9213 12.8052 19.7631 12.8052 17.2812Z" fill="#F5F8F9"/>
  <path d="M18.9566 20.5175C17.2516 20.5175 15.8704 19.0715 15.8704 17.2802C15.8704 15.4889 17.2516 14.0214 18.9782 14.0214C19.9278 14.0214 20.7695 14.4746 21.3306 15.1652V12.1006C20.6184 11.7553 19.8199 11.561 18.9782 11.561C15.9136 11.561 13.4316 14.1293 13.4316 17.2586C13.4316 20.388 15.9136 22.9562 18.9782 22.9562C19.8199 22.9562 20.6184 22.762 21.3306 22.4167V19.3952C20.7479 20.0859 19.9062 20.5175 18.9566 20.5175Z" fill="#F5F8F9"/>
  <path d="M21.3088 8H7V10.8272H21.3088V8Z" fill="#F5F8F9"/>
  <circle cx="15" cy="15" r="14.25" stroke="#F5F8F9" stroke-width="1.5"/>
</svg>
